<svg version="1.1" id="Layer_1" xmlns="http://www.w3.org/2000/svg" xmlns:xlink="http://www.w3.org/1999/xlink" x="0px" y="0px"
	 width="100%" viewBox="0 0 100 91" enable-background="new 0 0 100 91" xml:space="preserve">
<path fill="#FEFEFE" opacity="1.000000" stroke="none" 
	d="
M56.000000,92.000000 
	C37.333336,92.000000 19.166674,92.000000 1.000007,92.000000 
	C1.000005,61.666676 1.000005,31.333351 1.000002,1.000020 
	C34.333317,1.000013 67.666634,1.000013 100.999969,1.000006 
	C100.999977,31.333313 100.999977,61.666626 100.999985,91.999969 
	C86.166664,92.000000 71.333336,92.000000 56.000000,92.000000 
M56.264484,70.761169 
	C66.088593,59.533604 78.044273,51.441113 92.406151,46.419094 
	C89.907600,45.179852 87.499199,44.862865 85.236542,44.108650 
	C83.585564,43.558327 81.450516,42.824348 80.683762,41.503304 
	C69.684883,22.553413 39.405579,23.554237 27.121796,34.799957 
	C22.567038,38.969810 17.997234,43.123226 13.342511,47.367836 
	C28.237616,52.691334 42.426247,60.717861 51.888897,74.865631 
	C53.616734,73.252121 54.687267,72.252419 56.264484,70.761169 
z"/>
<path fill="#594660" opacity="1.000000" stroke="none" 
	d="
M56.011147,71.006943 
	C54.687267,72.252419 53.616734,73.252121 51.888897,74.865631 
	C42.426247,60.717861 28.237616,52.691334 13.342511,47.367836 
	C17.997234,43.123226 22.567038,38.969810 27.121796,34.799957 
	C39.405579,23.554237 69.684883,22.553413 80.683762,41.503304 
	C81.450516,42.824348 83.585564,43.558327 85.236542,44.108650 
	C87.499199,44.862865 89.907600,45.179852 92.406151,46.419094 
	C78.044273,51.441113 66.088593,59.533604 56.011147,71.006943 
M53.284203,31.725016 
	C42.462627,28.629601 32.895435,34.675823 31.311422,45.745335 
	C31.158947,46.810871 31.639568,48.478760 32.428001,49.086746 
	C39.121212,54.248188 45.954025,59.228600 52.825577,64.323059 
	C57.379299,60.599251 62.345520,56.730316 67.024681,52.540768 
	C67.903290,51.754097 68.234337,49.473965 67.797707,48.245747 
	C65.275856,41.152023 61.302555,35.146626 53.284203,31.725016 
z"/>
<path fill="#FBFAFB" opacity="1.000000" stroke="none" 
	d="
M53.661415,31.866192 
	C61.302555,35.146626 65.275856,41.152023 67.797707,48.245747 
	C68.234337,49.473965 67.903290,51.754097 67.024681,52.540768 
	C62.345520,56.730316 57.379299,60.599251 52.825577,64.323059 
	C45.954025,59.228600 39.121212,54.248188 32.428001,49.086746 
	C31.639568,48.478760 31.158947,46.810871 31.311422,45.745335 
	C32.895435,34.675823 42.462627,28.629601 53.661415,31.866192 
z"/>
</svg>