<svg width="272" height="32" viewBox="0 0 272 32" fill="none" xmlns="http://www.w3.org/2000/svg">
<g opacity="0.5">
<rect width="32" height="32" rx="4" fill="#7D7D80"/>
<path d="M19.16 11.41L14.58 16L19.16 20.59L17.75 22L11.75 16L17.75 10L19.16 11.41Z" fill="#FEFEFF"/>
</g>
<rect x="40.5" y="0.5" width="31" height="31" rx="3.5" fill="#FEFEFF"/>
<rect x="40.5" y="0.5" width="31" height="31" rx="3.5" stroke="#F14119"/>
<path d="M58.8603 19.9568V21H53.8363V19.9568H55.7563V14.184C55.7563 13.9792 55.7627 13.7701 55.7755 13.5568L54.2971 14.8048C54.2331 14.856 54.167 14.8901 54.0987 14.9072C54.0347 14.92 53.9728 14.92 53.9131 14.9072C53.8576 14.8944 53.8064 14.8752 53.7595 14.8496C53.7168 14.8197 53.6827 14.7877 53.6571 14.7536L53.2283 14.152L56.0059 11.7648H57.1259V19.9568H58.8603Z" fill="#F14119"/>
<rect x="80.5" y="0.5" width="31" height="31" rx="3.5" fill="#FEFEFF"/>
<rect x="80.5" y="0.5" width="31" height="31" rx="3.5" stroke="#D0D0D5"/>
<path d="M98.5851 19.7008C98.7344 19.7008 98.8518 19.7456 98.9371 19.8352C99.0224 19.9205 99.0651 20.0315 99.0651 20.168V21H92.8315V20.5328C92.8315 20.4389 92.8507 20.3408 92.8891 20.2384C92.9275 20.136 92.9894 20.0421 93.0747 19.9568L95.9419 17.0832C96.1851 16.84 96.4006 16.6075 96.5883 16.3856C96.7803 16.1637 96.9424 15.9419 97.0747 15.72C97.2112 15.4981 97.3136 15.2741 97.3819 15.048C97.4544 14.8176 97.4907 14.5765 97.4907 14.3248C97.4907 14.0816 97.4523 13.8683 97.3755 13.6848C97.303 13.4971 97.2006 13.3435 97.0683 13.224C96.9403 13.1003 96.7846 13.0085 96.6011 12.9488C96.4219 12.8848 96.2235 12.8528 96.0059 12.8528C95.7968 12.8528 95.6027 12.8827 95.4235 12.9424C95.2486 13.0021 95.0907 13.0853 94.9499 13.192C94.8134 13.2987 94.6982 13.4267 94.6043 13.576C94.5147 13.7211 94.4486 13.8811 94.4059 14.056C94.3419 14.2309 94.2587 14.3483 94.1563 14.408C94.0582 14.4677 93.9131 14.4805 93.7211 14.4464L92.9979 14.3184C93.0619 13.8832 93.1814 13.5013 93.3563 13.1728C93.5355 12.8443 93.7595 12.5712 94.0283 12.3536C94.2971 12.1317 94.6043 11.9653 94.9499 11.8544C95.2998 11.7392 95.6774 11.6816 96.0827 11.6816C96.4923 11.6816 96.8678 11.7435 97.2091 11.8672C97.5547 11.9867 97.8512 12.1595 98.0987 12.3856C98.3504 12.6075 98.5467 12.8784 98.6875 13.1984C98.8283 13.5184 98.8987 13.8789 98.8987 14.28C98.8987 14.6213 98.8475 14.9371 98.7451 15.2272C98.647 15.5173 98.5126 15.7947 98.3419 16.0592C98.1712 16.3237 97.9707 16.5819 97.7403 16.8336C97.5142 17.0811 97.2752 17.3328 97.0235 17.5888L94.7963 19.8672C94.9798 19.816 95.1632 19.7755 95.3467 19.7456C95.5344 19.7157 95.7115 19.7008 95.8779 19.7008H98.5851Z" fill="#323233"/>
<rect x="120.5" y="0.5" width="31" height="31" rx="3.5" fill="#FEFEFF"/>
<rect x="120.5" y="0.5" width="31" height="31" rx="3.5" stroke="#D0D0D5"/>
<path d="M132.09 20.2064C132.09 20.0827 132.111 19.9675 132.154 19.8608C132.201 19.7499 132.262 19.6539 132.339 19.5728C132.42 19.4917 132.514 19.4277 132.621 19.3808C132.732 19.3339 132.849 19.3104 132.973 19.3104C133.097 19.3104 133.212 19.3339 133.318 19.3808C133.429 19.4277 133.525 19.4917 133.606 19.5728C133.688 19.6539 133.752 19.7499 133.798 19.8608C133.845 19.9675 133.869 20.0827 133.869 20.2064C133.869 20.3344 133.845 20.4517 133.798 20.5584C133.752 20.6651 133.688 20.7589 133.606 20.84C133.525 20.9211 133.429 20.9829 133.318 21.0256C133.212 21.0725 133.097 21.096 132.973 21.096C132.849 21.096 132.732 21.0725 132.621 21.0256C132.514 20.9829 132.42 20.9211 132.339 20.84C132.262 20.7589 132.201 20.6651 132.154 20.5584C132.111 20.4517 132.09 20.3344 132.09 20.2064ZM135.115 20.2064C135.115 20.0827 135.136 19.9675 135.179 19.8608C135.226 19.7499 135.287 19.6539 135.364 19.5728C135.445 19.4917 135.539 19.4277 135.646 19.3808C135.757 19.3339 135.874 19.3104 135.998 19.3104C136.122 19.3104 136.237 19.3339 136.343 19.3808C136.454 19.4277 136.55 19.4917 136.631 19.5728C136.713 19.6539 136.777 19.7499 136.823 19.8608C136.87 19.9675 136.894 20.0827 136.894 20.2064C136.894 20.3344 136.87 20.4517 136.823 20.5584C136.777 20.6651 136.713 20.7589 136.631 20.84C136.55 20.9211 136.454 20.9829 136.343 21.0256C136.237 21.0725 136.122 21.096 135.998 21.096C135.874 21.096 135.757 21.0725 135.646 21.0256C135.539 20.9829 135.445 20.9211 135.364 20.84C135.287 20.7589 135.226 20.6651 135.179 20.5584C135.136 20.4517 135.115 20.3344 135.115 20.2064ZM138.14 20.2064C138.14 20.0827 138.161 19.9675 138.204 19.8608C138.251 19.7499 138.312 19.6539 138.389 19.5728C138.47 19.4917 138.564 19.4277 138.671 19.3808C138.782 19.3339 138.899 19.3104 139.023 19.3104C139.147 19.3104 139.262 19.3339 139.368 19.3808C139.479 19.4277 139.575 19.4917 139.656 19.5728C139.738 19.6539 139.802 19.7499 139.848 19.8608C139.895 19.9675 139.919 20.0827 139.919 20.2064C139.919 20.3344 139.895 20.4517 139.848 20.5584C139.802 20.6651 139.738 20.7589 139.656 20.84C139.575 20.9211 139.479 20.9829 139.368 21.0256C139.262 21.0725 139.147 21.096 139.023 21.096C138.899 21.096 138.782 21.0725 138.671 21.0256C138.564 20.9829 138.47 20.9211 138.389 20.84C138.312 20.7589 138.251 20.6651 138.204 20.5584C138.161 20.4517 138.14 20.3344 138.14 20.2064Z" fill="#323233"/>
<rect x="160.5" y="0.5" width="31" height="31" rx="3.5" fill="#FEFEFF"/>
<rect x="160.5" y="0.5" width="31" height="31" rx="3.5" stroke="#D0D0D5"/>
<path d="M174.259 14.5232C174.259 15.0693 174.404 15.4896 174.694 15.784C174.988 16.0741 175.398 16.2192 175.923 16.2192C176.204 16.2192 176.452 16.1744 176.665 16.0848C176.883 15.9952 177.066 15.8757 177.216 15.7264C177.365 15.5728 177.478 15.3957 177.555 15.1952C177.632 14.9904 177.67 14.7728 177.67 14.5424C177.67 14.2736 177.627 14.0347 177.542 13.8256C177.461 13.6123 177.344 13.4309 177.19 13.2816C177.041 13.1323 176.861 13.0192 176.652 12.9424C176.443 12.8613 176.215 12.8208 175.968 12.8208C175.707 12.8208 175.473 12.8635 175.264 12.9488C175.054 13.0341 174.875 13.1536 174.726 13.3072C174.577 13.4565 174.461 13.6357 174.38 13.8448C174.299 14.0496 174.259 14.2757 174.259 14.5232ZM176.62 17.384C176.706 17.2773 176.785 17.1771 176.857 17.0832C176.93 16.9851 176.998 16.8869 177.062 16.7888C176.84 16.9467 176.593 17.0683 176.32 17.1536C176.046 17.2347 175.756 17.2752 175.449 17.2752C175.116 17.2752 174.796 17.2197 174.489 17.1088C174.182 16.9936 173.909 16.8251 173.67 16.6032C173.431 16.3771 173.239 16.0997 173.094 15.7712C172.953 15.4384 172.883 15.0565 172.883 14.6256C172.883 14.2203 172.957 13.8384 173.107 13.48C173.26 13.1216 173.474 12.8101 173.747 12.5456C174.02 12.2768 174.346 12.0656 174.726 11.912C175.106 11.7584 175.526 11.6816 175.987 11.6816C176.443 11.6816 176.857 11.7563 177.228 11.9056C177.6 12.0507 177.915 12.2576 178.176 12.5264C178.436 12.7909 178.636 13.1088 178.777 13.48C178.918 13.8469 178.988 14.2523 178.988 14.696C178.988 14.9733 178.963 15.2357 178.912 15.4832C178.865 15.7307 178.794 15.9717 178.7 16.2064C178.611 16.4368 178.5 16.6651 178.368 16.8912C178.24 17.1131 178.094 17.3392 177.932 17.5696L175.763 20.68C175.699 20.7739 175.603 20.8507 175.475 20.9104C175.351 20.9701 175.21 21 175.052 21H173.792L176.62 17.384Z" fill="#323233"/>
<rect x="200.5" y="0.5" width="31" height="31" rx="3.5" fill="#FEFEFF"/>
<rect x="200.5" y="0.5" width="31" height="31" rx="3.5" stroke="#D0D0D5"/>
<path d="M215.148 19.9568V21H210.124V19.9568H212.044V14.184C212.044 13.9792 212.05 13.7701 212.063 13.5568L210.585 14.8048C210.521 14.856 210.454 14.8901 210.386 14.9072C210.322 14.92 210.26 14.92 210.201 14.9072C210.145 14.8944 210.094 14.8752 210.047 14.8496C210.004 14.8197 209.97 14.7877 209.945 14.7536L209.516 14.152L212.293 11.7648H213.413V19.9568H215.148ZM223.072 16.392C223.072 17.1984 222.985 17.896 222.81 18.4848C222.639 19.0736 222.402 19.5621 222.099 19.9504C221.796 20.3387 221.44 20.6267 221.03 20.8144C220.621 21.0021 220.179 21.096 219.706 21.096C219.232 21.096 218.79 21.0021 218.381 20.8144C217.971 20.6267 217.615 20.3387 217.312 19.9504C217.013 19.5621 216.779 19.0736 216.608 18.4848C216.437 17.896 216.352 17.1984 216.352 16.392C216.352 15.5856 216.437 14.888 216.608 14.2992C216.779 13.7061 217.013 13.2176 217.312 12.8336C217.615 12.4453 217.971 12.1573 218.381 11.9696C218.79 11.7776 219.232 11.6816 219.706 11.6816C220.179 11.6816 220.621 11.7776 221.03 11.9696C221.44 12.1573 221.796 12.4453 222.099 12.8336C222.402 13.2176 222.639 13.7061 222.81 14.2992C222.985 14.888 223.072 15.5856 223.072 16.392ZM221.651 16.392C221.651 15.7093 221.596 15.1419 221.485 14.6896C221.378 14.2331 221.235 13.8683 221.056 13.5952C220.877 13.3221 220.67 13.128 220.435 13.0128C220.201 12.8976 219.957 12.84 219.706 12.84C219.45 12.84 219.204 12.8976 218.97 13.0128C218.739 13.128 218.534 13.3221 218.355 13.5952C218.176 13.8683 218.033 14.2331 217.926 14.6896C217.82 15.1419 217.766 15.7093 217.766 16.392C217.766 17.0747 217.82 17.6443 217.926 18.1008C218.033 18.5531 218.176 18.9157 218.355 19.1888C218.534 19.4619 218.739 19.656 218.97 19.7712C219.204 19.8864 219.45 19.944 219.706 19.944C219.957 19.944 220.201 19.8864 220.435 19.7712C220.67 19.656 220.877 19.4619 221.056 19.1888C221.235 18.9157 221.378 18.5531 221.485 18.1008C221.596 17.6443 221.651 17.0747 221.651 16.392Z" fill="#323233"/>
<rect x="240.5" y="0.5" width="31" height="31" rx="3.5" fill="#FEFEFF"/>
<rect x="240.5" y="0.5" width="31" height="31" rx="3.5" stroke="#D0D0D5"/>
<path d="M252.84 11.41L257.42 16L252.84 20.59L254.25 22L260.25 16L254.25 10L252.84 11.41Z" fill="#7D7D80"/>
</svg>
