<svg version="1.1" id="Layer_1" xmlns="http://www.w3.org/2000/svg" xmlns:xlink="http://www.w3.org/1999/xlink" x="0px" y="0px"
	 width="100%" viewBox="0 0 560 560" enable-background="new 0 0 560 560" xml:space="preserve">
<path fill="#000000" opacity="1.000000" stroke="none" 
	d="
M141.664185,195.841797 
	C141.812027,134.041122 179.649689,80.290115 237.505112,60.950623 
	C313.664551,35.492588 394.992889,76.341080 418.567657,153.344635 
	C441.763580,229.110733 399.535980,306.867371 325.700806,330.135559 
	C320.887817,331.652283 318.952515,333.778198 319.111786,338.881256 
	C319.444275,349.536133 319.289856,360.209503 319.189850,370.873901 
	C319.003967,390.698242 303.938110,406.537415 284.657715,407.302826 
	C265.399567,408.067352 249.124298,394.007965 247.602448,374.228119 
	C246.119415,354.952911 247.264343,335.588898 247.093140,316.264832 
	C247.040039,310.272675 246.892761,304.237579 247.485031,298.291473 
	C249.472610,278.337524 263.613739,265.011810 283.739655,264.888245 
	C314.811798,264.697479 342.840881,243.132050 350.611176,213.019241 
	C361.170502,172.097885 335.234863,133.784668 296.074036,126.513626 
	C258.353760,119.510040 222.797928,143.490326 214.746674,180.925537 
	C213.739487,185.608597 213.540726,190.513748 213.407806,195.328156 
	C212.860016,215.168503 197.292526,230.905014 177.742142,231.186584 
	C158.521271,231.463409 142.676529,216.148376 141.664185,195.841797 
z"/>
<path fill="#000000" opacity="1.000000" stroke="none" 
	d="
M313.978546,495.787201 
	C305.723328,507.918732 294.492920,514.233643 280.264404,512.887756 
	C265.068085,511.450378 253.952652,503.166168 249.242813,488.387787 
	C241.023941,462.598907 260.780548,440.255219 285.091705,441.288483 
	C310.712311,442.377411 328.330414,470.912689 313.978546,495.787201 
z"/>
</svg>